<?xml version="1.0" encoding="utf-8"?>
<!-- Generator: Adobe Illustrator 19.0.0, SVG Export Plug-In . SVG Version: 6.00 Build 0)  -->
<svg version="1.1" id="LOGO" xmlns="http://www.w3.org/2000/svg" xmlns:xlink="http://www.w3.org/1999/xlink" x="0px" y="0px"
	 viewBox="0 0 248 210" style="enable-background:new 0 0 248 210;" xml:space="preserve">
<style type="text/css">
	.Arched_x0020_Green{fill:url(#SVGID_1_);stroke:#FFFFFF;stroke-width:0.25;stroke-miterlimit:1;}
	.st0{fill-rule:evenodd;clip-rule:evenodd;fill:#5E5F5F;}
	.st1{fill-rule:evenodd;clip-rule:evenodd;fill:#5CC0DE;}
</style>
<linearGradient id="SVGID_1_" gradientUnits="userSpaceOnUse" x1="-871" y1="1181" x2="-870.2929" y2="1180.2928">
	<stop  offset="0" style="stop-color:#20AC4B"/>
	<stop  offset="0.9831" style="stop-color:#19361A"/>
</linearGradient>
<path class="st0" d="M21.6,24.1c16,0,32,0,48,0C45.7,68.9,44.1,180.1,91.5,182.6c55.4,2.9,23.3-119.6,72.1-131.7
	c-22,40-13.3,106.4-39.3,137C68.2,254,10.6,113.6,47.8,40.2c-31-3.7-31.2,48.1-28.4,80.6c3.4,39.3,18.9,68.5,43.7,80.6
	C6.3,214.3-13.4,78.2,21.6,24.1z"/>
<path class="st1" d="M80.6,163.8C110.2,120.5,92,12.3,150.4,10.6c51.5-1.4,69.8,93.6,48,161.2c29.3,5.5,29.9-42.1,28.4-69.9
	c-2.3-42.2-18.5-76.9-45.9-88.7c64.1-9.9,75.6,123.4,43.7,177.3c-16.7,0-33.5,0-50.2,0c26.4-41.7,26.2-159.3-21.8-158.5
	C101,32.9,128.4,158.5,80.6,163.8z"/>
</svg>
