<?xml version="1.0" encoding="iso-8859-1"?>
<!-- Generator: Adobe Illustrator 19.0.0, SVG Export Plug-In . SVG Version: 6.00 Build 0)  -->
<svg version="1.1" id="Capa_1" xmlns="http://www.w3.org/2000/svg" xmlns:xlink="http://www.w3.org/1999/xlink" x="0px" y="0px"
	 viewBox="0 0 512 512" style="enable-background:new 0 0 512 512;" xml:space="preserve">
<circle style="fill:#009AE5;" cx="256" cy="256" r="256"/>
<path style="fill:#0070B4;" d="M511.933,261.29L366.214,115.315c-4.397-4.86-10.188-8.719-17.369-11.031l-52.241-54.149
	l-20.763-9.993l-18.456,49.577c-14.898-7.383-41.862-21.533-71.331-22.472c-38.081-1.213-60.524,37.587-46.506,69.709
	c3.559,8.156,8.325,14.887,13.726,20.499c-0.673,3.841-1.043,7.916-1.043,12.26v43.967c-10.297,3.177-17.347,13.921-16.156,25.662
	l1.966,19.376c0.774,7.626,4.866,14.042,10.566,17.818c1.065,1.591,2.296,3.042,3.677,4.308
	c0.701,25.965,12.169,49.232,30.109,65.51L203.2,367.25h-32.62c-0.7,0-1.37,0.01-2.04,0.03c-0.69,0.01-1.35,0.04-2.01,0.08
	c-0.39,0.01-0.78,0.05-1.16,0.07c-0.04,0-0.09,0.01-0.15,0.01c-0.22,0.02-0.45,0.03-0.67,0.06h-0.09c-0.69,0.06-1.38,0.12-2.06,0.21
	c-0.15,0-0.28,0.02-0.42,0.05c-0.1,0-0.21,0.01-0.31,0.03c-0.03,0-0.08,0-0.12,0.01c-0.28,0.04-0.53,0.07-0.79,0.11
	c-0.13,0.01-0.22,0.03-0.34,0.04c-0.09,0.02-0.19,0.03-0.27,0.04c-0.47,0.07-0.93,0.15-1.38,0.21c-0.22,0.04-0.44,0.07-0.68,0.12
	c-0.06,0-0.12,0.01-0.16,0.03c-0.27,0.04-0.55,0.1-0.81,0.15c-0.14,0.01-0.25,0.04-0.38,0.07c-0.34,0.06-0.67,0.15-1.01,0.2
	c-0.33,0.08-0.68,0.16-1.01,0.22c-32.72,7.29-57.37,36.65-57.37,71.49v16.436c0.04,0.032,0.08,0.065,0.12,0.096
	c0.715,0.564,1.437,1.118,2.158,1.673c0.485,0.375,0.972,0.748,1.46,1.119c0.925,0.701,1.852,1.398,2.784,2.088v0.007
	C146.404,493.378,199.025,512,256,512C395.616,512,509.115,400.231,511.933,261.29z"/>
<polygon style="fill:#57555C;" points="275.841,40.141 255.997,93.446 267.322,98.897 296.604,50.134 "/>
<rect x="213.18" y="330.5" style="fill:#FFC473;" width="85.64" height="138.28"/>
<rect x="256" y="330.5" style="fill:#FFAA20;" width="42.822" height="138.28"/>
<path style="fill:#57555C;" d="M414.65,440.48v16.44C371.03,491.41,315.92,512,256,512s-115.03-20.59-158.65-55.08v-16.44
	c0-34.84,24.65-64.2,57.37-71.49c0.33-0.06,0.68-0.14,1.01-0.22c0.34-0.05,0.67-0.14,1.01-0.2c0.13-0.03,0.24-0.06,0.38-0.07
	c0.26-0.05,0.54-0.11,0.81-0.15c0.04-0.02,0.1-0.03,0.16-0.03c0.24-0.05,0.46-0.08,0.68-0.12c0.45-0.06,0.91-0.14,1.38-0.21
	c0.08-0.01,0.18-0.02,0.27-0.04c0.12-0.01,0.21-0.03,0.34-0.04c0.26-0.04,0.51-0.07,0.79-0.11c0.04-0.01,0.09-0.01,0.12-0.01
	c0.1-0.02,0.21-0.03,0.31-0.03c0.14-0.03,0.27-0.05,0.42-0.05c0.68-0.09,1.37-0.15,2.06-0.21h0.09c0.22-0.03,0.45-0.04,0.67-0.06
	c0.06,0,0.11-0.01,0.15-0.01c0.38-0.02,0.77-0.06,1.16-0.07c0.66-0.04,1.32-0.07,2.01-0.08c0.67-0.02,1.34-0.03,2.04-0.03h42.48
	l0.12,0.18v0.01L256,432.75l1.84-2.81c0.15-0.22,0.3-0.45,0.47-0.7c8.59-13.06,38.35-58.32,40.51-61.78
	c0.08-0.13,0.12-0.2,0.12-0.21h42.48c0.58,0,1.15,0.01,1.71,0.03h0.33c0.13,0,0.26,0,0.38,0.01c0.07,0,0.15,0,0.22,0.02
	c0.48,0,0.94,0.03,1.41,0.05c0.39,0.01,0.78,0.05,1.16,0.07c0.04,0,0.09,0.01,0.15,0.01c0.22,0.02,0.45,0.03,0.67,0.06h0.09
	c0.71,0.05,1.38,0.12,2.06,0.21c0.14,0,0.28,0.02,0.42,0.05c0.1,0,0.21,0.01,0.31,0.03c0.03,0,0.08,0,0.12,0.01
	c0.28,0.04,0.53,0.07,0.79,0.11c0.13,0.01,0.22,0.03,0.34,0.04c0.09,0.02,0.16,0.02,0.24,0.04h0.03c0.69,0.1,1.38,0.2,2.06,0.33
	l0.16,0.03c0.27,0.04,0.55,0.1,0.81,0.15c0.42,0.07,0.84,0.17,1.26,0.24c0.25,0.04,0.51,0.11,0.75,0.17
	c0.14,0.02,0.26,0.05,0.39,0.08C390,376.28,414.65,405.64,414.65,440.48z"/>
<path style="fill:#2A2A2C;" d="M414.65,440.48v16.44C371.03,491.41,315.92,512,256,512v-79.25l1.84-2.81
	c0.15-0.22,0.3-0.45,0.47-0.7c8.59-13.06,38.35-58.32,40.51-61.78c0.08-0.13,0.12-0.2,0.12-0.21h42.48c0.58,0,1.15,0.01,1.71,0.03
	h0.33c0.13,0,0.26,0,0.38,0.01c0.07,0,0.15,0,0.22,0.02c0.48,0,0.94,0.03,1.41,0.05c0.39,0.01,0.78,0.05,1.16,0.07
	c0.04,0,0.09,0.01,0.15,0.01c0.22,0.02,0.45,0.03,0.67,0.06h0.09c0.71,0.05,1.38,0.12,2.06,0.21c0.14,0,0.28,0.02,0.42,0.05
	c0.1,0,0.21,0.01,0.31,0.03c0.03,0,0.08,0,0.12,0.01c0.28,0.04,0.53,0.07,0.79,0.11c0.13,0.01,0.22,0.03,0.34,0.04
	c0.09,0.02,0.16,0.02,0.24,0.04h0.03c0.69,0.1,1.38,0.2,2.06,0.33l0.16,0.03c0.27,0.04,0.55,0.1,0.81,0.15
	c0.42,0.07,0.84,0.17,1.26,0.24c0.25,0.04,0.51,0.11,0.75,0.17c0.14,0.02,0.26,0.05,0.39,0.08
	C390,376.28,414.65,405.64,414.65,440.48z"/>
<path style="fill:#FFDBA9;" d="M357.666,213.15c-4.245-66.681-57.536-104.527-101.669-104.527s-97.424,37.846-101.669,104.527
	c-11.42,2.283-19.525,13.671-18.254,26.194l1.966,19.376c1.334,13.145,12.504,22.735,24.822,21.311l2.121-0.245
	c25.216,70.043,65.909,74.418,91.012,78.514c25.103-4.097,65.796-8.472,91.012-78.514l2.121,0.245
	c12.318,1.424,23.488-8.166,24.822-21.311l1.967-19.376C377.19,226.821,369.086,215.432,357.666,213.15z"/>
<path style="fill:#FFC473;" d="M375.924,239.344l-1.969,19.38c-1.339,13.144-12.503,22.729-24.821,21.31l-2.128-0.246
	c-25.211,70.043-65.905,74.412-91.009,78.509V108.626c43.532,0,95.975,36.819,101.473,101.819c0.08,0.937,0.142,1.836,0.195,2.706
	C369.087,215.431,377.192,226.825,375.924,239.344z"/>
<path style="fill:#C06200;" d="M359.762,169.715c0-74.018-103.766-72.73-103.766-72.73s-103.766-1.287-103.766,72.73v48.335v4.845
	v55.432c0,50.732,41.127,91.859,91.859,91.859h23.818c50.732,0,91.859-41.127,91.859-91.859L359.762,169.715z M324.005,281.799
	c-9.878,0-17.885,8.007-17.885,17.885v3.827H205.878v-3.827c0-9.878-8.007-17.885-17.885-17.885h-20.048v-58.905v-4.845v-48.013
	c0,0,49.43,6.999,88.051,6.999s88.051-6.999,88.051-6.999l0.006,111.763H324.005z"/>
<path style="fill:#703700;" d="M255.997,96.981v80.055c38.618,0,88.049-6.999,88.049-6.999v111.76h-20.043
	c-9.876,0-17.89,8.013-17.89,17.89v3.823h-50.116v66.674h11.904c50.734,0,91.862-41.128,91.862-91.853V169.718
	C359.764,95.697,255.997,96.981,255.997,96.981z"/>
<polygon style="fill:#FFA91F;" points="255.997,218.05 255.997,293.154 277.922,293.154 277.922,239.975 325.685,239.975 
	325.685,218.05 "/>
<rect x="184.68" y="218.05" style="fill:#FFC473;" width="55.917" height="21.925"/>
<rect x="226.56" y="316.3" style="fill:#FFDBA9;" width="58.892" height="12.551"/>
<rect x="256" y="316.3" style="fill:#FFC473;" width="29.448" height="12.551"/>
<path style="fill:#E02424;" d="M139.548,136.956c14.018,32.122,46.695,42.225,63.585,48.366
	c15.136,5.504,68.126,11.524,84.232,11.516c16.105-0.008,50.456,3.528,73.305-17.197c25.959-23.546,20.308-69.296-17.059-76.734
	s-45.13-2.744-76.142-8.866c-8.532-1.684-42.839-25.565-81.414-26.793C147.973,66.034,125.53,104.834,139.548,136.956z"/>
<path style="fill:#990011;" d="M343.607,102.906c-37.367-7.438-45.13-2.744-76.142-8.866c-2.212-0.437-6.167-2.371-11.468-5.009
	v105.44c13.117,1.45,25.063,2.37,31.364,2.367c16.105-0.008,50.456,3.528,73.305-17.197
	C386.626,156.095,380.974,110.344,343.607,102.906z"/>
<g>
</g>
<g>
</g>
<g>
</g>
<g>
</g>
<g>
</g>
<g>
</g>
<g>
</g>
<g>
</g>
<g>
</g>
<g>
</g>
<g>
</g>
<g>
</g>
<g>
</g>
<g>
</g>
<g>
</g>
</svg>
